<svg width="121" height="23" viewBox="0 0 121 23" fill="none" xmlns="http://www.w3.org/2000/svg">
<path d="M35.6928 13.014L35.7381 15.1456C35.7381 16.2946 35.451 17.2394 34.8767 17.9802C34.3023 18.7361 33.3048 19.4542 31.8841 20.1345L31.1814 19.114V18.8873C32.2242 18.3279 32.9648 17.7761 33.4031 17.2319C33.8414 16.6876 34.0605 15.9998 34.0605 15.1683V13.1954L33.9698 4.75964L31.1814 4.78231L31 4.62358L31.1134 3.28564H35.7835L35.6928 13.014Z" fill="white"/>
<path d="M43.9895 6.39236C45.6369 6.39236 46.8988 6.87614 47.7754 7.84368C48.6671 8.81122 49.113 10.1794 49.113 11.9482C49.113 13.8681 48.6369 15.3573 47.6848 16.4155C46.7477 17.4586 45.4026 17.9802 43.6494 17.9802C42.0171 17.9802 40.7551 17.4889 39.8634 16.5062C38.9717 15.5084 38.5259 14.0949 38.5259 12.2657C38.5259 10.391 39.002 8.94728 39.9541 7.93439C40.9063 6.90637 42.2514 6.39236 43.9895 6.39236ZM43.8308 7.821C42.6368 7.821 41.7451 8.16115 41.1557 8.84146C40.5813 9.52176 40.2942 10.5951 40.2942 12.0616C40.2942 13.6338 40.5813 14.7752 41.1557 15.4858C41.73 16.1963 42.6066 16.5516 43.7854 16.5516C44.9945 16.5516 45.8938 16.2039 46.4832 15.5084C47.0727 14.813 47.3674 13.7245 47.3674 12.243C47.3674 10.7161 47.0727 9.59735 46.4832 8.88681C45.9089 8.17627 45.0248 7.821 43.8308 7.821Z" fill="white"/>
<path d="M61.5509 14.2839L61.5963 17.8215H59.9187L59.9867 14.4199L59.964 12.8779L53.8203 12.9006L53.7976 14.2839L53.843 17.8215H52.1654L52.2334 14.4199L52.1654 6.52842H53.8656L53.8203 11.3813L56.8808 11.4039L59.964 11.3813L59.9187 6.52842H61.6189L61.5509 14.2839Z" fill="white"/>
<path d="M74.4664 17.8215H72.7661L72.494 16.5969L71.9046 14.9188L69.2068 14.8962L66.8038 14.9188L66.1917 16.5062L65.8743 17.8215H64.1966L68.5494 6.52842H70.499L74.4664 17.8215ZM71.4285 13.5356L69.5469 8.18383H69.4109L67.3478 13.5356L69.3428 13.5582L71.4285 13.5356Z" fill="white"/>
<path d="M86.634 14.4426L86.6567 17.8215H84.8431L78.9034 9.20429H78.7901L78.7674 14.0571L78.8127 17.8215H77.2711L77.3391 14.488L77.2938 6.52842H79.0848L85.0244 15.1456H85.1831L85.1378 6.59646L86.702 6.48307L86.634 14.4426Z" fill="white"/>
<path d="M100.139 14.4426L100.162 17.8215H98.3479L92.4083 9.20429H92.2949L92.2723 14.0571L92.3176 17.8215H90.776L90.844 14.488L90.7987 6.52842H92.5896L98.5293 15.1456H98.688L98.6427 6.59646L100.207 6.48307L100.139 14.4426Z" fill="white"/>
<path d="M111.173 16.3702L111.309 16.5062L111.15 17.8215H104.281L104.349 14.4199L104.281 6.52842H111.195L111.309 6.66449L111.173 7.97974L108.316 7.88903L105.958 7.91171L105.936 11.3359L108.18 11.3586L110.153 11.2906L110.266 11.4493L110.13 12.7872L108.044 12.7192L105.936 12.7419L105.913 14.2839L105.936 16.4382L108.158 16.4609L111.173 16.3702Z" fill="white"/>
<path d="M117.465 6.41504C118.387 6.41504 119.309 6.59646 120.231 6.95928L119.936 8.63737L119.664 8.7054C119.241 8.3728 118.841 8.13092 118.463 7.97974C118.085 7.81344 117.692 7.73029 117.284 7.73029C116.634 7.73029 116.12 7.90415 115.742 8.25186C115.365 8.58445 115.176 8.96996 115.176 9.40838C115.176 9.8468 115.357 10.2021 115.72 10.4742C116.098 10.7463 116.672 11.0487 117.443 11.3813C118.123 11.6836 118.659 11.9557 119.052 12.1976C119.46 12.4395 119.808 12.7645 120.095 13.1727C120.397 13.5658 120.549 14.0496 120.549 14.624C120.549 15.2136 120.39 15.7654 120.072 16.2794C119.755 16.7783 119.287 17.1865 118.667 17.504C118.062 17.8063 117.337 17.9575 116.491 17.9575C115.962 17.9575 115.402 17.8971 114.813 17.7761C114.239 17.64 113.702 17.4435 113.203 17.1865L113.407 15.395L113.634 15.3043C114.057 15.7276 114.548 16.0602 115.108 16.3021C115.682 16.5289 116.211 16.6423 116.695 16.6423C117.329 16.6423 117.851 16.476 118.259 16.1434C118.667 15.7957 118.871 15.3799 118.871 14.8962C118.871 14.4426 118.682 14.0798 118.304 13.8077C117.941 13.5356 117.367 13.2181 116.581 12.8552C115.931 12.568 115.395 12.3034 114.972 12.0616C114.564 11.8197 114.216 11.5022 113.929 11.1091C113.642 10.701 113.498 10.2096 113.498 9.63514C113.498 9.03043 113.657 8.48619 113.974 8.00242C114.307 7.51864 114.768 7.13314 115.357 6.8459C115.962 6.55866 116.664 6.41504 117.465 6.41504Z" fill="white"/>
<rect y="0.778076" width="21.699" height="21.699" rx="5" fill="white"/>
<path d="M8.46235 6.33048C8.99513 5.66109 9.93774 5.20345 11.2902 4.95755C11.8776 4.86192 12.4787 4.81411 13.0934 4.81411C13.7082 4.81411 14.3434 4.86876 14.9991 4.97804C15.3543 4.58187 15.7163 4.38379 16.0852 4.38379C16.1808 4.38379 16.2423 4.41111 16.2696 4.46576C16.3106 4.50674 16.3106 4.55455 16.2696 4.6092C16.2286 4.66384 16.133 4.71848 15.9827 4.77313C15.8461 4.81411 15.6822 4.91657 15.4909 5.0805C15.9554 5.21711 16.2765 5.33323 16.454 5.42886C16.6316 5.51082 16.7614 5.62011 16.8434 5.75672C16.939 5.89333 16.9868 5.98896 16.9868 6.0436C16.9868 6.16655 16.7956 6.16655 16.4131 6.0436C16.0442 5.92065 15.6071 5.82503 15.1016 5.75672C14.8557 6.34414 14.5961 7.15014 14.3229 8.17472C14.0497 9.1993 13.8858 9.81404 13.8311 10.019C14.5688 9.84136 15.0606 9.75257 15.3065 9.75257C15.5661 9.75257 15.7232 9.77306 15.7778 9.81404C15.8325 9.84136 15.8598 9.88235 15.8598 9.93699C15.8735 9.99163 15.8666 10.0394 15.8393 10.0804C15.812 10.1078 15.7642 10.1078 15.6959 10.0804C15.6412 10.0531 15.5319 10.0394 15.368 10.0394C15.2041 10.0394 14.8967 10.1009 14.4459 10.2239C13.9951 10.3332 13.7287 10.5039 13.6467 10.7362C12.3899 14.1924 10.7916 16.5967 8.85169 17.9492C7.99105 18.5639 7.20554 18.8713 6.49516 18.8713C6.23561 18.8713 5.98971 18.8303 5.75747 18.7483C5.06076 18.5161 4.7124 17.997 4.7124 17.191C4.7124 16.3986 5.12906 15.5243 5.96239 14.5681C7.64269 12.6419 9.91042 11.228 12.7656 10.3263C12.8066 10.2034 12.9363 9.80038 13.1549 9.11733C13.633 7.55997 14.077 6.42611 14.4869 5.71574C14.3229 5.71574 14.077 5.71574 13.7492 5.71574C13.4213 5.71574 12.9568 5.74989 12.3557 5.8182C10.812 5.99579 9.71233 6.38513 9.0566 6.98621C8.71508 7.31408 8.54432 7.68975 8.54432 8.11325C8.54432 8.31816 8.59896 8.50258 8.70825 8.66652C8.8312 8.83045 8.94732 8.94657 9.0566 9.01487C9.2342 9.13782 9.47327 9.27443 9.77381 9.4247C9.93774 9.54765 9.97189 9.62279 9.87627 9.65011C9.83528 9.65011 9.78747 9.64328 9.73282 9.62962C9.40496 9.56131 9.0566 9.36323 8.68776 9.03536C8.31891 8.7075 8.12766 8.33182 8.11399 7.90833C8.07301 7.75806 8.05252 7.63511 8.05252 7.53948C8.05252 7.08867 8.18913 6.68567 8.46235 6.33048ZM5.77796 17.0475C5.77796 17.1978 5.79162 17.3481 5.81894 17.4984C5.95555 18.0175 6.29708 18.277 6.84352 18.277C7.64952 18.277 8.4965 17.7374 9.38447 16.6582C10.6959 15.0599 11.782 13.079 12.6426 10.7157C10.2519 11.4943 8.35989 12.758 6.96647 14.5066C6.17413 15.4765 5.77796 16.3235 5.77796 17.0475Z" fill="#333333"/>
</svg>
